<svg width="53" height="18" viewBox="0 0 53 18" fill="none" xmlns="http://www.w3.org/2000/svg">
<path fill-rule="evenodd" clip-rule="evenodd" d="M19.3748 7.02019V15.1136C19.4681 15.8382 20.2482 17.2873 22.6221 17.2873H26.0374V15.6571H22.6221C22.1369 15.6571 21.1664 15.4199 21.1664 14.4714V7.02019H25.1975V5.24173H21.1664V2.26921H19.3748V5.24173H16.9111V7.02019H19.3748Z" fill="black"/>
<path fill-rule="evenodd" clip-rule="evenodd" d="M46.3377 7.02019V15.1136C46.431 15.8382 47.2112 17.2873 49.5851 17.2873H53.0004V15.6571H49.5851C49.0998 15.6571 48.1294 15.4199 48.1294 14.4714V7.02019H52.1603V5.24173H48.1294V2.26921H46.3377V5.24173H43.874V7.02019H46.3377Z" fill="black"/>
<path fill-rule="evenodd" clip-rule="evenodd" d="M0 0.117645H2.28312L7.5579 8.24517L12.9364 0.117645H15.2733L8.58137 10.2597H6.29825L0 0.117645ZM8.58251 10.2597H6.30322V17.2875H8.58251V10.2597Z" fill="#38BFF2"/>
<path fill-rule="evenodd" clip-rule="evenodd" d="M26.9629 0.117645H29.2461L34.5208 8.24517L39.8994 0.117645H42.2362L35.5443 10.2597H33.2612L26.9629 0.117645ZM35.5457 10.2597H33.2664V17.2875H35.5457V10.2597Z" fill="#F15525"/>
</svg>
