<svg width="747" height="708" viewBox="0 0 747 708" fill="none" xmlns="http://www.w3.org/2000/svg">
<g filter="url(#filter0_bd_1_691)">
<ellipse cx="373.5" cy="324" rx="273.5" ry="254" fill="white" fill-opacity="0.3"/>
<ellipse cx="373.5" cy="324" rx="273.5" ry="254" fill="url(#paint0_linear_1_691)"/>
<path d="M646 324C646 463.66 524.069 577 373.5 577C222.931 577 101 463.66 101 324C101 184.34 222.931 71 373.5 71C524.069 71 646 184.34 646 324Z" stroke="url(#paint1_linear_1_691)" stroke-width="2"/>
</g>
<g filter="url(#filter1_bd_1_691)">
<ellipse cx="383.947" cy="330.388" rx="182.947" ry="185.388" fill="white" fill-opacity="0.3"/>
<ellipse cx="383.947" cy="330.388" rx="182.947" ry="185.388" fill="url(#paint2_linear_1_691)"/>
<path d="M565.894 330.388C565.894 432.235 484.421 514.776 383.947 514.776C283.473 514.776 202 432.235 202 330.388C202 228.541 283.473 146 383.947 146C484.421 146 565.894 228.541 565.894 330.388Z" stroke="url(#paint3_linear_1_691)" stroke-width="2"/>
</g>
<path d="M496.092 281.07H250.069V386.091H496.092V281.07Z" fill="#38BFF2" stroke="#263238" stroke-linecap="round" stroke-linejoin="round"/>
<path d="M278.354 287.426H255.21V300.409H278.354V287.426Z" fill="white" stroke="#263238" stroke-miterlimit="10"/>
<path d="M490.397 350.731H453.942V363.714H490.397V350.731Z" fill="white" stroke="#263238" stroke-miterlimit="10"/>
<path d="M490.408 303.641H467.903V316.625H490.408V303.641Z" fill="white" stroke="#263238" stroke-miterlimit="10"/>
<path d="M278.354 334.721H255.21V347.704H278.354V334.721Z" fill="white" stroke="#263238" stroke-miterlimit="10"/>
<path d="M273.949 319.078H255.21V332.061H273.949V319.078Z" fill="white" stroke="#263238" stroke-miterlimit="10"/>
<path d="M268.019 303.253H255.21V316.236H268.019V303.253Z" fill="white" stroke="#263238" stroke-miterlimit="10"/>
<path d="M284.38 303.253H271.571V316.236H284.38V303.253Z" fill="white" stroke="#263238" stroke-miterlimit="10"/>
<path d="M300.731 303.253H287.921V316.236H300.731V303.253Z" fill="white" stroke="#263238" stroke-miterlimit="10"/>
<path d="M317.081 303.253H304.272V316.236H317.081V303.253Z" fill="white" stroke="#263238" stroke-miterlimit="10"/>
<path d="M333.442 303.253H320.633V316.236H333.442V303.253Z" fill="white" stroke="#263238" stroke-miterlimit="10"/>
<path d="M349.792 303.253H336.983V316.236H349.792V303.253Z" fill="white" stroke="#263238" stroke-miterlimit="10"/>
<path d="M366.142 303.253H353.333V316.236H366.142V303.253Z" fill="white" stroke="#263238" stroke-miterlimit="10"/>
<path d="M382.504 303.253H369.694V316.236H382.504V303.253Z" fill="white" stroke="#263238" stroke-miterlimit="10"/>
<path d="M398.854 303.253H386.045V316.236H398.854V303.253Z" fill="white" stroke="#263238" stroke-miterlimit="10"/>
<path d="M415.215 303.253H402.406V316.236H415.215V303.253Z" fill="white" stroke="#263238" stroke-miterlimit="10"/>
<path d="M431.566 303.253H418.756V316.236H431.566V303.253Z" fill="white" stroke="#263238" stroke-miterlimit="10"/>
<path d="M447.916 303.253H435.106V316.236H447.916V303.253Z" fill="white" stroke="#263238" stroke-miterlimit="10"/>
<path d="M464.277 303.253H451.467V316.236H464.277V303.253Z" fill="white" stroke="#263238" stroke-miterlimit="10"/>
<path d="M268.019 366.74H255.21V379.723H268.019V366.74Z" fill="white" stroke="#263238" stroke-miterlimit="10"/>
<path d="M284.38 366.74H271.571V379.723H284.38V366.74Z" fill="white" stroke="#263238" stroke-miterlimit="10"/>
<path d="M300.731 366.74H287.921V379.723H300.731V366.74Z" fill="white" stroke="#263238" stroke-miterlimit="10"/>
<path d="M319.907 366.74H304.272V379.723H319.907V366.74Z" fill="white" stroke="#263238" stroke-miterlimit="10"/>
<path d="M401.681 366.74H323.448V379.723H401.681V366.74Z" fill="white" stroke="#263238" stroke-miterlimit="10"/>
<path d="M457.142 366.74H444.332V379.723H457.142V366.74Z" fill="white" stroke="#263238" stroke-miterlimit="10"/>
<path d="M473.524 366.74H460.715V379.723H473.524V366.74Z" fill="white" stroke="#263238" stroke-miterlimit="10"/>
<path d="M424.771 366.74H404.88V379.723H424.771V366.74Z" fill="white" stroke="#263238" stroke-miterlimit="10"/>
<path d="M490.397 366.74H477.588V379.723H490.397V366.74Z" fill="white" stroke="#263238" stroke-miterlimit="10"/>
<path d="M290.395 319.078H277.586V332.061H290.395V319.078Z" fill="white" stroke="#263238" stroke-miterlimit="10"/>
<path d="M306.746 319.078H293.937V332.061H306.746V319.078Z" fill="white" stroke="#263238" stroke-miterlimit="10"/>
<path d="M323.107 319.078H310.298V332.061H323.107V319.078Z" fill="white" stroke="#263238" stroke-miterlimit="10"/>
<path d="M339.457 319.078H326.648V332.061H339.457V319.078Z" fill="white" stroke="#263238" stroke-miterlimit="10"/>
<path d="M355.819 319.078H343.01V332.061H355.819V319.078Z" fill="white" stroke="#263238" stroke-miterlimit="10"/>
<path d="M372.169 319.078H359.359V332.061H372.169V319.078Z" fill="white" stroke="#263238" stroke-miterlimit="10"/>
<path d="M388.519 319.078H375.71V332.061H388.519V319.078Z" fill="white" stroke="#263238" stroke-miterlimit="10"/>
<path d="M404.88 319.078H392.071V332.061H404.88V319.078Z" fill="white" stroke="#263238" stroke-miterlimit="10"/>
<path d="M421.23 319.078H408.421V332.061H421.23V319.078Z" fill="white" stroke="#263238" stroke-miterlimit="10"/>
<path d="M437.581 319.078H424.772V332.061H437.581V319.078Z" fill="white" stroke="#263238" stroke-miterlimit="10"/>
<path d="M453.942 319.078H441.133V332.061H453.942V319.078Z" fill="white" stroke="#263238" stroke-miterlimit="10"/>
<path d="M470.292 319.078H457.483V332.061H470.292V319.078Z" fill="white" stroke="#263238" stroke-miterlimit="10"/>
<path d="M490.397 319.078V347.898H477.587V332.061H473.833V319.078H490.397Z" fill="white" stroke="#263238" stroke-miterlimit="10"/>
<path d="M294.15 334.905H281.341V347.888H294.15V334.905Z" fill="white" stroke="#263238" stroke-miterlimit="10"/>
<path d="M310.5 334.905H297.691V347.888H310.5V334.905Z" fill="white" stroke="#263238" stroke-miterlimit="10"/>
<path d="M326.851 334.905H314.042V347.888H326.851V334.905Z" fill="white" stroke="#263238" stroke-miterlimit="10"/>
<path d="M343.212 334.905H330.403V347.888H343.212V334.905Z" fill="white" stroke="#263238" stroke-miterlimit="10"/>
<path d="M359.562 334.905H346.753V347.888H359.562V334.905Z" fill="white" stroke="#263238" stroke-miterlimit="10"/>
<path d="M375.923 334.905H363.114V347.888H375.923V334.905Z" fill="white" stroke="#263238" stroke-miterlimit="10"/>
<path d="M392.273 334.905H379.464V347.888H392.273V334.905Z" fill="white" stroke="#263238" stroke-miterlimit="10"/>
<path d="M408.624 334.905H395.814V347.888H408.624V334.905Z" fill="white" stroke="#263238" stroke-miterlimit="10"/>
<path d="M424.985 334.905H412.176V347.888H424.985V334.905Z" fill="white" stroke="#263238" stroke-miterlimit="10"/>
<path d="M441.335 334.905H428.526V347.888H441.335V334.905Z" fill="white" stroke="#263238" stroke-miterlimit="10"/>
<path d="M457.686 334.905H444.876V347.888H457.686V334.905Z" fill="white" stroke="#263238" stroke-miterlimit="10"/>
<path d="M474.047 334.905H461.237V347.888H474.047V334.905Z" fill="white" stroke="#263238" stroke-miterlimit="10"/>
<path d="M287.196 350.731H274.387V363.714H287.196V350.731Z" fill="white" stroke="#263238" stroke-miterlimit="10"/>
<path d="M303.546 350.731H290.737V363.714H303.546V350.731Z" fill="white" stroke="#263238" stroke-miterlimit="10"/>
<path d="M319.907 350.731H307.098V363.714H319.907V350.731Z" fill="white" stroke="#263238" stroke-miterlimit="10"/>
<path d="M336.258 350.731H323.448V363.714H336.258V350.731Z" fill="white" stroke="#263238" stroke-miterlimit="10"/>
<path d="M352.619 350.731H339.809V363.714H352.619V350.731Z" fill="white" stroke="#263238" stroke-miterlimit="10"/>
<path d="M368.969 350.731H356.159V363.714H368.969V350.731Z" fill="white" stroke="#263238" stroke-miterlimit="10"/>
<path d="M385.32 350.731H372.51V363.714H385.32V350.731Z" fill="white" stroke="#263238" stroke-miterlimit="10"/>
<path d="M401.681 350.731H388.871V363.714H401.681V350.731Z" fill="white" stroke="#263238" stroke-miterlimit="10"/>
<path d="M418.031 350.731H405.222V363.714H418.031V350.731Z" fill="white" stroke="#263238" stroke-miterlimit="10"/>
<path d="M434.381 350.731H421.572V363.714H434.381V350.731Z" fill="white" stroke="#263238" stroke-miterlimit="10"/>
<path d="M450.742 350.731H437.933V363.714H450.742V350.731Z" fill="white" stroke="#263238" stroke-miterlimit="10"/>
<path d="M294.15 288.204H281.341V301.188H294.15V288.204Z" fill="white" stroke="#263238" stroke-miterlimit="10"/>
<path d="M310.5 288.204H297.691V301.188H310.5V288.204Z" fill="white" stroke="#263238" stroke-miterlimit="10"/>
<path d="M326.851 288.204H314.042V301.188H326.851V288.204Z" fill="white" stroke="#263238" stroke-miterlimit="10"/>
<path d="M343.212 288.204H330.403V301.188H343.212V288.204Z" fill="white" stroke="#263238" stroke-miterlimit="10"/>
<path d="M359.562 288.204H346.753V301.188H359.562V288.204Z" fill="white" stroke="#263238" stroke-miterlimit="10"/>
<path d="M375.923 288.204H363.114V301.188H375.923V288.204Z" fill="white" stroke="#263238" stroke-miterlimit="10"/>
<path d="M392.273 288.204H379.464V301.188H392.273V288.204Z" fill="white" stroke="#263238" stroke-miterlimit="10"/>
<path d="M408.624 288.204H395.814V301.188H408.624V288.204Z" fill="white" stroke="#263238" stroke-miterlimit="10"/>
<path d="M424.985 288.204H412.176V301.188H424.985V288.204Z" fill="white" stroke="#263238" stroke-miterlimit="10"/>
<path d="M441.335 288.204H428.526V301.188H441.335V288.204Z" fill="white" stroke="#263238" stroke-miterlimit="10"/>
<path d="M457.686 288.204H444.876V301.188H457.686V288.204Z" fill="white" stroke="#263238" stroke-miterlimit="10"/>
<path d="M474.047 288.204H461.237V301.188H474.047V288.204Z" fill="white" stroke="#263238" stroke-miterlimit="10"/>
<path d="M490.397 288.204H477.588V301.188H490.397V288.204Z" fill="white" stroke="#263238" stroke-miterlimit="10"/>
<path d="M270.728 350.731H255.21V363.714H270.728V350.731Z" fill="white" stroke="#263238" stroke-miterlimit="10"/>
<path d="M250.069 281.74L255.21 280H492.754L496.135 281.718L250.069 281.74Z" fill="#263238"/>
<path d="M465.504 406.165L465.632 358.374C466.144 356.449 466.559 349.358 467.647 344.418C469.503 336.137 462.208 326.148 461.696 325.824C459.648 324.527 455.297 324.548 455.297 324.548C455.297 324.548 451.03 319.619 447.223 318.062C444.606 317.121 441.817 316.77 439.053 317.035C436.121 314.582 432.851 312.575 429.347 311.079C427.976 310.554 426.488 310.421 425.047 310.695C423.606 310.97 422.267 311.641 421.177 312.636L416.378 320.203C415.677 321.277 415.359 322.561 415.477 323.843C415.595 325.125 416.143 326.328 417.028 327.251C419.311 329.521 422.233 328.462 423.705 328.462C425.742 328.462 426.51 326.127 426.51 326.127C426.51 326.127 427.011 338.288 426.51 339.845C425.988 341.391 422.169 345.012 422.169 345.012L409.371 327.9C404.977 321.857 401.132 315.424 397.884 308.679C397.513 307.857 397.028 307.092 396.444 306.409C394.204 303.847 389.415 303.09 388.167 307.847C387.861 309.368 387.93 310.943 388.37 312.43C393.703 328.408 400.507 340.483 406.704 353.066C410.384 360.536 409.019 360.449 410.853 363.822C410.64 363.973 410.746 364.254 410.512 364.395C409.616 368.027 408.987 371.67 408.08 375.302C407.329 370.742 405.954 366.311 403.995 362.136C404.512 359.606 404.702 357.018 404.56 354.439C404.4 351.832 403.254 349.389 401.361 347.617C400.3 346.748 398.999 346.235 397.638 346.147C396.664 346.083 395.701 346.393 394.942 347.016C394.182 347.639 393.683 348.529 393.543 349.509C393.33 351.486 392.973 353.445 392.476 355.368C391.661 357.88 390.677 360.332 389.533 362.708C389.533 367.541 392.476 366.751 394.62 386.145C396.284 401.279 415.482 411.235 425.934 422.143L438.313 459.204C453.887 451.777 460.3 448.064 473.584 437.852L465.504 406.165Z" fill="white"/>
<path d="M401.627 380.005C401.755 379.767 401.862 379.529 401.968 379.281C401.855 379.362 401.764 379.471 401.704 379.598C401.645 379.724 401.618 379.865 401.627 380.005Z" fill="#92E3A9"/>
<path d="M432.376 313.133C430.912 311.973 429.172 311.227 427.331 310.971L432.376 313.133Z" fill="#92E3A9"/>
<path d="M426.691 318.192L426.755 318.732C426.792 318.55 426.77 318.36 426.691 318.192Z" fill="#92E3A9"/>
<g opacity="0.5">
<path opacity="0.5" d="M401.627 380.005C401.755 379.767 401.862 379.529 401.968 379.281C401.855 379.362 401.764 379.471 401.704 379.598C401.645 379.724 401.618 379.865 401.627 380.005Z" fill="white"/>
<path opacity="0.5" d="M432.376 313.133C430.912 311.973 429.172 311.227 427.331 310.971L432.376 313.133Z" fill="white"/>
<path opacity="0.5" d="M426.691 318.192L426.755 318.732C426.792 318.55 426.77 318.36 426.691 318.192Z" fill="white"/>
<path opacity="0.5" d="M432.568 365.076C432.088 363.865 429.763 360.384 428.408 362.795L432.568 365.076Z" fill="white"/>
</g>
<path d="M392.913 359.26C391.674 360.25 390.616 361.454 389.788 362.816L392.913 359.26Z" fill="white"/>
<path d="M438.313 459.204L426.041 422.11C415.589 411.203 396.391 401.225 394.727 386.112C392.594 366.719 389.639 367.508 389.639 362.676C390.784 360.3 391.767 357.848 392.583 355.336C393.08 353.412 393.437 351.454 393.65 349.477C393.79 348.497 394.289 347.607 395.048 346.983C395.807 346.36 396.77 346.05 397.745 346.115C399.106 346.202 400.407 346.716 401.467 347.585C403.361 349.356 404.507 351.8 404.667 354.406C404.809 356.986 404.619 359.573 404.102 362.103C406.061 366.278 407.436 370.71 408.187 375.27C409.093 371.638 409.723 367.995 410.618 364.362C410.853 364.222 410.746 363.941 410.96 363.789C409.125 360.417 410.49 360.546 406.811 353.033C400.614 340.45 393.82 328.375 388.477 312.398C388.037 310.91 387.967 309.336 388.274 307.814C389.522 303.058 394.311 303.815 396.551 306.377C397.135 307.06 397.62 307.824 397.99 308.647C401.239 315.392 405.084 321.825 409.477 327.867L422.276 344.98C422.276 344.98 426.094 341.358 426.617 339.812C427.118 338.256 426.617 326.094 426.617 326.094C426.617 326.094 425.849 328.429 423.812 328.429C422.34 328.429 419.418 329.51 417.135 327.219C416.241 326.311 415.678 325.121 415.541 323.845C415.403 322.57 415.698 321.285 416.378 320.203L421.145 312.636C422.235 311.641 423.574 310.97 425.015 310.695C426.456 310.421 427.944 310.553 429.315 311.079C432.819 312.575 436.089 314.582 439.021 317.035C441.786 316.77 444.574 317.121 447.191 318.062C451.03 319.63 455.265 324.548 455.265 324.548C455.265 324.548 459.606 324.548 461.664 325.824C462.176 326.148 469.471 336.137 467.615 344.418C466.549 349.358 466.112 356.449 465.6 358.374L465.472 406.165L474.043 437.852" stroke="#263238" stroke-miterlimit="10"/>
<path d="M440.226 318.722C442.104 325.772 443.079 333.039 443.127 340.342C443.066 341.566 443.196 342.791 443.511 343.974C443.676 344.562 443.988 345.098 444.415 345.529C444.843 345.961 445.373 346.274 445.954 346.439" stroke="#263238" stroke-miterlimit="10"/>
<path d="M455.307 325.824C458.507 332.591 455.233 347.704 455.467 348.774C455.568 349.312 455.781 349.822 456.092 350.269C456.403 350.717 456.804 351.091 457.27 351.369" stroke="#263238" stroke-miterlimit="10"/>
<path d="M427.811 317.792C427.438 319.954 427.129 322.44 426.745 324.592C425.503 323.509 424.487 322.186 423.754 320.702C423.022 319.217 422.588 317.6 422.478 315.943" stroke="#263238" stroke-miterlimit="10"/>
<path d="M407.376 375.475L405.072 376.502" stroke="#263238" stroke-miterlimit="10"/>
<path d="M407.963 377.345C407.595 379.15 407.595 381.011 407.963 382.815" stroke="#263238" stroke-miterlimit="10"/>
<path d="M421.444 357.141L423.993 361.8" stroke="#263238" stroke-miterlimit="10"/>
<path d="M426.35 340.093L428.888 336.461" stroke="#263238" stroke-miterlimit="10"/>
<path d="M462.048 357.141L461.28 359.995" stroke="#263238" stroke-miterlimit="10"/>
<path d="M455.841 349.39C456.552 346.969 457.302 344.547 458.091 342.126" stroke="#263238" stroke-miterlimit="10"/>
<path d="M463.306 336.472C463.981 336.114 464.769 336.041 465.496 336.27C466.224 336.499 466.832 337.011 467.188 337.694" stroke="#263238" stroke-miterlimit="10"/>
<path d="M448.023 324.062C448.908 323.81 449.841 323.787 450.737 323.995C451.633 324.202 452.464 324.634 453.153 325.251" stroke="#263238" stroke-miterlimit="10"/>
<path d="M400.518 331.272C401.346 330.353 402.376 329.644 403.525 329.204C404.674 328.765 405.91 328.607 407.131 328.743" stroke="#263238" stroke-miterlimit="10"/>
<path d="M390.887 310.884C391.649 310.327 392.513 309.928 393.428 309.709C394.343 309.49 395.291 309.456 396.219 309.609" stroke="#263238" stroke-miterlimit="10"/>
<path d="M392.913 359.26C391.674 360.25 390.616 361.454 389.788 362.816" stroke="#263238" stroke-miterlimit="10"/>
<path d="M393.895 354.341C395.58 353.13 398.268 355.855 399.814 354.46C400.088 354.147 400.28 353.769 400.371 353.361C400.462 352.952 400.451 352.527 400.337 352.125C400.109 351.321 400.005 350.486 400.028 349.65" stroke="#263238" stroke-miterlimit="10"/>
<path d="M441.452 346.85C443.505 351.168 443.922 356.099 442.625 360.709" stroke="#263238" stroke-miterlimit="10"/>
<path d="M453.846 353.52C454.178 355.564 453.801 357.661 452.779 359.455" stroke="#263238" stroke-miterlimit="10"/>
<path d="M346.651 352.913C346.193 350.751 343.196 351.086 343.196 351.086C333.117 351.68 331.762 367.69 331.762 367.69L328.146 378.662L327.08 362.166L327.186 340.903C327.186 340.903 330.237 320.558 328.882 317.369C328.573 316.489 328.01 315.724 327.266 315.173C326.523 314.622 325.633 314.309 324.712 314.277C318.846 312.785 318.505 321.358 318.505 321.358L313.556 338.849L311.465 357.712L309.78 356.793C309.78 356.793 308.98 336.784 309.322 336.449C309.663 336.114 311.689 322.612 311.689 322.612C311.689 322.612 312.756 320.104 314.174 316.904C314.575 316.005 314.783 315.031 314.783 314.045C314.783 313.059 314.575 312.084 314.174 311.185C311.796 306.267 306.847 308.558 305.823 311.185C304.621 313.853 303.268 316.448 301.77 318.958L296.118 334.622C296.331 338.168 294.326 355.648 294.326 355.648L292.289 354.718L289.014 344.448L291.51 333.93C291.51 333.93 296.96 327.876 296.011 324.309C295.062 320.742 290.486 321.801 290.486 321.801L281.25 332.989H278.53L272.131 341.227C269.226 350.062 268.706 359.524 270.627 368.631L272.099 375.582V420.52C272.099 420.52 267.715 427.719 267.715 428.4C267.715 428.714 263.566 436.341 261.039 443.422C272.053 450.72 283.942 456.883 298.143 462.918C302.185 451.383 309.076 435.621 311.689 432.746C316.873 427.027 327.026 416.055 327.026 416.055C327.026 416.055 338.556 397.278 339.911 391.029C340.977 385.905 343.729 376.609 344.667 373.42C344.885 372.695 344.972 371.937 344.923 371.182C344.849 369.495 344.689 366.22 344.689 363.334C344.689 359.161 347.088 355.042 346.651 352.913Z" fill="white"/>
<path d="M261.039 443.422C264.245 435.995 268.744 425.635 268.744 425.321C268.744 424.64 273.128 417.44 273.128 417.44V372.513L271.656 365.606C269.737 356.522 270.245 347.084 273.128 338.267L279.527 330.029H282.247L291.483 318.841C291.483 318.841 296.112 317.76 297.008 321.349C297.904 324.938 292.507 330.948 292.507 330.948L290.012 341.466L293.286 351.736L295.323 352.666C295.323 352.666 297.328 335.186 297.115 331.64L302.768 315.976C304.265 313.467 305.618 310.871 306.821 308.203C307.887 305.577 312.793 303.285 315.172 308.203C315.573 309.102 315.78 310.077 315.78 311.063C315.78 312.049 315.573 313.024 315.172 313.922C313.807 317.165 312.687 319.63 312.687 319.63C312.687 319.63 310.66 333.121 310.319 333.467C309.978 333.813 310.777 353.812 310.777 353.812L312.463 354.731L314.5 335.867L319.449 318.376C319.449 318.376 319.79 309.803 325.656 311.295C326.577 311.328 327.467 311.64 328.21 312.191C328.954 312.742 329.517 313.507 329.826 314.387C331.181 317.576 328.13 337.921 328.13 337.921L328.024 359.184L329.09 375.681L332.706 364.708C332.706 364.708 334.06 348.698 344.139 348.104C344.139 348.104 347.136 347.79 347.595 349.931C348.054 352.071 345.633 356.179 345.633 360.298C345.633 363.184 345.793 366.46 345.867 368.146C345.916 368.901 345.829 369.66 345.611 370.384C344.673 373.573 341.974 382.869 340.854 387.993C339.5 394.242 327.97 413.019 327.97 413.019C327.97 413.019 317.817 423.991 312.633 429.71C310.02 432.585 302.185 451.383 298.143 462.918" stroke="#263238" stroke-miterlimit="10"/>
<path d="M295.174 354.32C295.457 355.393 295.466 356.523 295.199 357.601C294.932 358.679 294.398 359.67 293.649 360.481" fill="white"/>
<path d="M295.174 354.32C295.457 355.393 295.466 356.523 295.199 357.601C294.932 358.679 294.398 359.67 293.649 360.481" stroke="#263238" stroke-miterlimit="10"/>
<path d="M277.97 369.432C279.432 367.13 280.861 363.973 280.466 361.27C279.698 355.963 277.266 349.855 278.386 344.601C279.069 341.25 279.762 337.888 280.445 334.537" fill="white"/>
<path d="M277.97 369.432C279.432 367.13 280.861 363.973 280.466 361.27C279.698 355.963 277.266 349.855 278.386 344.601C279.069 341.25 279.762 337.888 280.445 334.537" stroke="#263238" stroke-miterlimit="10"/>
<path d="M320.494 319.295C322.242 318.828 324.079 318.828 325.827 319.295C325.827 318.797 325.827 318.3 325.827 317.792" stroke="#263238" stroke-miterlimit="10"/>
<path d="M306.522 312.538C307.036 312.897 307.638 313.106 308.261 313.142C308.884 313.177 309.505 313.039 310.055 312.741C310.606 312.443 311.065 311.997 311.383 311.452C311.7 310.907 311.863 310.284 311.855 309.652" stroke="#263238" stroke-miterlimit="10"/>
<path d="M345.035 350.071C343.561 350.456 342.265 351.35 341.372 352.599C340.478 353.848 340.042 355.374 340.14 356.914L342.753 357.703" stroke="#263238" stroke-miterlimit="10"/>
<path d="M310.713 351.39C310.83 353.206 310.607 357.541 310.713 359.347V351.39Z" fill="white"/>
<path d="M310.713 351.39C310.83 353.206 310.607 357.541 310.713 359.347" stroke="#263238" stroke-miterlimit="10"/>
<path d="M312.676 353.898C312.463 356.874 312.246 359.847 312.025 362.817C312.025 362.438 312.025 362.06 312.025 361.681" fill="white"/>
<path d="M312.676 353.898C312.463 356.874 312.246 359.847 312.025 362.817C312.025 362.438 312.025 362.06 312.025 361.681" stroke="#263238" stroke-miterlimit="10"/>
<path d="M328.919 378.956C329.694 382.241 329.34 385.696 327.917 388.75L328.919 378.956Z" fill="white"/>
<path d="M328.919 378.956C329.694 382.241 329.34 385.696 327.917 388.75" stroke="#263238" stroke-miterlimit="10"/>
<path d="M301.914 363.379C299.589 365.962 299.931 372.156 301.573 375.572" stroke="#263238" stroke-miterlimit="10"/>
<path d="M319.097 367.638C319.11 370.542 318.1 373.356 316.249 375.572" stroke="#263238" stroke-miterlimit="10"/>
<path d="M284.978 364.611C284.591 367.245 285.156 369.932 286.567 372.178" stroke="#263238" stroke-miterlimit="10"/>
<path d="M275.08 372.686C274.977 374.742 275.556 376.774 276.722 378.459" stroke="#263238" stroke-miterlimit="10"/>
<path d="M288.646 322.84C289.259 322.557 289.94 322.465 290.605 322.574C291.269 322.684 291.887 322.991 292.379 323.457L293.723 321.684" stroke="#263238" stroke-miterlimit="10"/>
<path d="M299.589 330.786C300.489 330.239 301.551 330.036 302.585 330.212C303.62 330.389 304.558 330.933 305.231 331.748" stroke="#263238" stroke-miterlimit="10"/>
<path d="M316.676 336.191C317.634 335.757 318.675 335.544 319.725 335.567C320.774 335.589 321.805 335.847 322.745 336.321" stroke="#263238" stroke-miterlimit="10"/>
<path d="M278.652 345.261C279.22 344.298 280.049 343.522 281.04 343.024C282.031 342.525 283.142 342.326 284.241 342.45" stroke="#263238" stroke-miterlimit="10"/>
<path d="M271.497 355.595C271.531 354.896 271.8 354.229 272.26 353.706C272.72 353.183 273.343 352.835 274.024 352.72" stroke="#263238" stroke-miterlimit="10"/>
<path d="M551.831 96.8857L194 98.5938L199.407 90.378C200.684 88.4235 202.417 86.8187 204.452 85.7061C206.488 84.5935 208.763 84.0074 211.076 84H534.841C536.936 83.9985 539.005 84.4736 540.895 85.3904C542.786 86.3071 544.449 87.6421 545.762 89.297L551.831 96.8857Z" fill="white" stroke="#263238" stroke-linecap="round" stroke-linejoin="round"/>
<path d="M379.133 151.25H359.53C339.414 151.25 323.107 167.779 323.107 188.167V208.036C323.107 228.425 339.414 244.953 359.53 244.953H379.133C399.249 244.953 415.556 228.425 415.556 208.036V188.167C415.556 167.779 399.249 151.25 379.133 151.25Z" fill="#757575" stroke="#263238" stroke-linecap="round" stroke-linejoin="round"/>
<path d="M339.905 206.026V219.344C339.905 221.351 340.692 223.275 342.092 224.695C343.492 226.114 345.391 226.911 347.371 226.911H392.454C394.425 226.911 396.316 226.121 397.715 224.714C399.113 223.306 399.906 221.395 399.92 219.398C399.984 213.398 400.294 206.026 400.294 206.026H339.905Z" fill="#999999" stroke="#263238" stroke-linecap="round" stroke-linejoin="round"/>
<path d="M504.902 210.469H241.248C239.892 210.472 238.567 210.061 237.445 209.29C236.322 208.518 235.455 207.422 234.956 206.145L194.288 100.324C194.041 99.6839 193.952 98.9928 194.029 98.3103C194.106 97.6279 194.346 96.9748 194.729 96.4079C195.112 95.841 195.625 95.3775 196.225 95.0576C196.825 94.7378 197.492 94.5713 198.17 94.5726H548.002C548.675 94.58 549.336 94.7529 549.929 95.0764C550.522 95.4 551.028 95.8645 551.405 96.4301C551.781 96.9957 552.017 97.6455 552.091 98.3237C552.165 99.0019 552.076 99.6882 551.831 100.324L511.163 206.112C510.671 207.391 509.811 208.49 508.694 209.267C507.578 210.044 506.256 210.463 504.902 210.469Z" fill="white" stroke="#263238" stroke-linecap="round" stroke-linejoin="round"/>
<path d="M506.865 201.247H238.657L201.754 101.275H543.597L506.865 201.247Z" fill="white"/>
<path d="M399.985 210.328H340.193V214.479H399.985V210.328Z" fill="#263238"/>
<path d="M467.69 196.966H278.29C277.224 196.966 276.264 196.491 276.072 195.885L249.131 109.134C248.832 108.161 249.675 107.372 251.018 107.372H494.962C496.306 107.372 497.148 108.161 496.839 109.134L469.908 195.885C469.706 196.48 468.725 196.966 467.69 196.966Z" fill="#38BFF2"/>
<path d="M465.791 194.988H280.21C279.862 194.991 279.523 194.878 279.244 194.667C278.965 194.456 278.761 194.159 278.664 193.821L256.735 120.895C256.653 120.647 256.632 120.382 256.671 120.123C256.711 119.864 256.811 119.619 256.964 119.407C257.116 119.196 257.316 119.024 257.547 118.907C257.778 118.79 258.034 118.73 258.292 118.733H487.688C487.946 118.73 488.202 118.79 488.433 118.907C488.664 119.024 488.864 119.196 489.016 119.407C489.169 119.619 489.269 119.864 489.309 120.123C489.349 120.382 489.327 120.647 489.245 120.895L467.338 193.821C467.239 194.158 467.035 194.455 466.756 194.665C466.477 194.875 466.139 194.989 465.791 194.988Z" fill="#263238"/>
<path d="M305.978 137.694H270.387C269.501 137.694 268.926 138.17 269.096 138.775C269.268 139.124 269.539 139.412 269.873 139.605C270.207 139.797 270.59 139.885 270.973 139.856H306.362C307.236 139.856 307.855 139.381 307.759 138.775C307.663 138.17 306.852 137.694 305.978 137.694Z" fill="white"/>
<path d="M307.162 144.278H276.893C276.029 144.278 275.464 144.743 275.613 145.359C275.776 145.703 276.037 145.989 276.362 146.182C276.687 146.375 277.061 146.464 277.437 146.44H307.588C308.452 146.44 309.06 145.975 308.964 145.359C308.868 144.743 308.026 144.278 307.162 144.278Z" fill="white"/>
<path opacity="0.5" d="M308.314 150.634H273.97C273.117 150.634 272.563 151.077 272.712 151.629C272.884 151.959 273.147 152.231 273.469 152.411C273.791 152.592 274.158 152.673 274.525 152.645H308.655C309.498 152.645 310.106 152.202 310.01 151.65C309.914 151.099 309.167 150.634 308.314 150.634Z" fill="white"/>
<path d="M309.423 156.774H289.254C288.422 156.774 287.846 157.207 287.974 157.736C288.102 158.266 288.881 158.698 289.713 158.698H309.775C310.607 158.698 311.204 158.266 311.108 157.736C311.012 157.207 310.266 156.774 309.423 156.774Z" fill="white"/>
<path d="M310.5 162.698H277.309C276.498 162.698 275.944 163.12 276.093 163.628C276.242 164.136 277.01 164.558 277.831 164.558H310.895C311.705 164.558 312.292 164.147 312.207 163.628C312.121 163.109 311.321 162.698 310.5 162.698Z" fill="white"/>
<path d="M311.534 168.438H284.743C283.932 168.438 283.388 168.838 283.516 169.336C283.644 169.833 284.401 170.233 285.201 170.233H311.865C312.665 170.233 313.241 169.833 313.156 169.336C313.07 168.838 312.345 168.438 311.534 168.438Z" fill="white"/>
<path d="M312.537 173.984H286.183C285.383 173.984 284.85 174.373 284.978 174.849C285.106 175.324 285.841 175.724 286.631 175.724H312.857C313.647 175.724 314.212 175.335 314.127 174.849C314.041 174.362 313.337 173.984 312.537 173.984Z" fill="white"/>
<path d="M313.508 179.346H284.711C283.932 179.346 283.399 179.724 283.527 180.189C283.655 180.654 284.38 181.032 285.159 181.032H313.774C314.553 181.032 315.118 180.654 315.033 180.189C314.948 179.724 314.297 179.346 313.508 179.346Z" fill="white"/>
<path opacity="0.5" d="M314.457 184.546H295.856C295.088 184.546 294.555 184.913 294.662 185.367C294.768 185.821 295.483 186.178 296.24 186.178H314.724C315.492 186.178 316.046 185.811 315.972 185.367C315.897 184.924 315.225 184.546 314.457 184.546Z" fill="white"/>
<path opacity="0.5" d="M304.741 130.862H278.216C277.32 130.862 276.722 131.36 276.882 131.943C277.054 132.294 277.326 132.585 277.662 132.778C277.999 132.971 278.385 133.056 278.77 133.024H305.136C306.032 133.024 306.661 132.527 306.554 131.943C306.406 131.59 306.149 131.295 305.823 131.1C305.497 130.906 305.118 130.822 304.741 130.862Z" fill="white"/>
<path d="M303.451 123.782H266.526C265.62 123.782 265.022 124.29 265.204 124.927C265.382 125.294 265.664 125.598 266.013 125.802C266.363 126.006 266.764 126.101 267.166 126.073H303.877C304.773 126.073 305.424 125.565 305.306 124.927C305.189 124.29 304.389 123.782 303.451 123.782Z" fill="white"/>
<path d="M315.364 189.583H284.764C284.007 189.583 283.495 189.94 283.612 190.372C283.73 190.805 284.444 191.161 285.201 191.161H315.652C316.398 191.161 316.953 190.805 316.878 190.372C316.804 189.94 316.121 189.583 315.364 189.583Z" fill="white"/>
<path opacity="0.5" d="M318.478 140.094H325.379L325.038 137.424H318.084L318.478 140.094Z" fill="white"/>
<path opacity="0.5" d="M319.438 146.591H326.222L325.891 144.018H319.054L319.438 146.591Z" fill="white"/>
<path opacity="0.5" d="M320.366 152.872H327.032L326.712 150.385H320.003L320.366 152.872Z" fill="white"/>
<path opacity="0.5" d="M321.273 158.936H327.821L327.502 156.526H320.91L321.273 158.936Z" fill="white"/>
<path opacity="0.5" d="M322.137 164.785H328.579L328.269 162.471H321.795L322.137 164.785Z" fill="white"/>
<path opacity="0.5" d="M322.979 170.449H329.304L329.016 168.211H322.638L322.979 170.449Z" fill="white"/>
<path opacity="0.5" d="M323.79 175.941H330.019L329.741 173.757H323.47L323.79 175.941Z" fill="white"/>
<path opacity="0.5" d="M324.568 181.238H330.701L330.434 179.141H324.259L324.568 181.238Z" fill="white"/>
<path opacity="0.5" d="M325.336 186.383H331.373L331.106 184.34H325.037L325.336 186.383Z" fill="white"/>
<path opacity="0.5" d="M317.475 133.36H324.504L324.152 130.581H317.07L317.475 133.36Z" fill="white"/>
<path opacity="0.5" d="M316.441 126.365H323.598L323.235 123.49H316.014L316.441 126.365Z" fill="white"/>
<path opacity="0.5" d="M326.072 191.356H332.013L331.757 189.378H325.784L326.072 191.356Z" fill="white"/>
<path d="M362.452 180.189C362.452 179.724 363.05 179.346 363.828 179.346H466.026C466.805 179.346 467.338 179.724 467.199 180.189C467.032 180.472 466.789 180.702 466.498 180.851C466.207 181 465.881 181.063 465.557 181.032H363.882C363.103 181.032 362.463 180.654 362.452 180.189Z" fill="white"/>
<path d="M467.061 175.724H410.469C409.68 175.724 409.083 175.335 409.136 174.849C409.189 174.362 409.872 173.984 410.672 173.984H467.573C468.362 173.984 468.895 174.373 468.757 174.849C468.589 175.146 468.339 175.387 468.037 175.543C467.736 175.698 467.397 175.761 467.061 175.724Z" fill="white"/>
<path opacity="0.5" d="M397.041 175.724H379.442C378.653 175.724 378.013 175.335 378.024 174.849C378.035 174.362 378.674 173.984 379.474 173.984H397.179C397.969 173.984 398.587 174.373 398.544 174.849C398.502 175.324 397.83 175.724 397.041 175.724Z" fill="white"/>
<path d="M433.773 170.233H353.952C353.152 170.233 352.48 169.833 352.448 169.336C352.416 168.838 353.045 168.438 353.856 168.438H434.104C434.903 168.438 435.49 168.838 435.394 169.336C435.298 169.833 434.583 170.233 433.773 170.233Z" fill="white"/>
<path opacity="0.5" d="M337.271 168.438H342.956C343.756 168.438 344.449 168.838 344.492 169.336C344.534 169.833 343.916 170.233 343.116 170.233H337.452C336.653 170.233 335.959 169.833 335.906 169.336C335.853 168.838 336.461 168.438 337.271 168.438Z" fill="white"/>
<path d="M445.324 163.628C445.217 164.147 444.471 164.558 443.65 164.558H368.436C367.614 164.558 366.953 164.147 366.943 163.628C366.932 163.109 367.593 162.698 368.404 162.698H444.033C444.855 162.698 445.431 163.12 445.324 163.628Z" fill="white"/>
<path d="M336.663 162.698H357.994C358.816 162.698 359.498 163.12 359.52 163.628C359.541 164.136 358.89 164.558 358.08 164.558H336.855C336.045 164.558 335.341 164.147 335.277 163.628C335.213 163.109 335.842 162.698 336.663 162.698Z" fill="white"/>
<path d="M336.034 156.774H418.095C418.927 156.774 419.545 157.207 419.471 157.736C419.396 158.266 418.671 158.698 417.839 158.698H336.236C335.415 158.698 334.69 158.266 334.636 157.736C334.583 157.207 335.202 156.774 336.034 156.774Z" fill="white"/>
<path d="M389.308 152.645C388.466 152.645 387.804 152.202 387.826 151.65C387.847 151.099 388.551 150.656 389.404 150.656H432.696C433.549 150.656 434.157 151.099 434.061 151.65C433.965 152.202 433.208 152.645 432.365 152.645H389.308Z" fill="white"/>
<path d="M335.394 150.634H372.862C373.715 150.634 374.398 151.077 374.398 151.629C374.398 152.18 373.715 152.645 372.862 152.645H335.607C334.754 152.645 334.028 152.202 333.964 151.65C333.9 151.099 334.54 150.634 335.394 150.634Z" fill="white"/>
<path d="M475.38 146.342H372.233C371.379 146.342 370.675 145.877 370.675 145.261C370.675 144.645 371.369 144.18 372.233 144.18H475.956C476.819 144.18 477.385 144.645 477.225 145.261C477.056 145.605 476.791 145.891 476.463 146.083C476.135 146.275 475.758 146.365 475.38 146.342Z" fill="white"/>
<path d="M477.172 139.824H386.514C385.639 139.824 384.946 139.348 384.968 138.743C384.989 138.138 385.714 137.662 386.599 137.662H477.876C478.75 137.662 479.326 138.138 479.155 138.743C478.974 139.108 478.687 139.407 478.332 139.601C477.977 139.794 477.572 139.872 477.172 139.824Z" fill="white"/>
<path opacity="0.5" d="M479.134 133.078H460.107C459.211 133.078 458.603 132.581 458.741 131.997C458.908 131.644 459.177 131.351 459.513 131.158C459.848 130.965 460.234 130.88 460.619 130.916H479.731C480.627 130.916 481.214 131.414 481.033 131.997C480.852 132.344 480.578 132.63 480.241 132.822C479.904 133.014 479.52 133.103 479.134 133.078Z" fill="white"/>
<path d="M446.828 133.078H377.043C376.158 133.078 375.432 132.581 375.443 131.997C375.454 131.414 376.168 130.916 377.064 130.916H447.308C448.204 130.916 448.833 131.414 448.705 131.997C448.545 132.356 448.277 132.653 447.94 132.847C447.603 133.042 447.213 133.123 446.828 133.078Z" fill="white"/>
<path d="M338.956 184.546H403.408C404.176 184.546 404.763 184.913 404.71 185.367C404.656 185.821 404.016 186.178 403.248 186.178H339.137C338.37 186.178 337.708 185.811 337.666 185.367C337.623 184.924 338.188 184.546 338.956 184.546Z" fill="white"/>
<path d="M339.49 189.583H438.509C439.256 189.583 439.8 189.94 439.704 190.372C439.608 190.805 438.936 191.161 438.178 191.161H339.66C338.903 191.161 338.252 190.805 338.21 190.372C338.167 189.94 338.732 189.583 339.49 189.583Z" fill="white"/>
<path d="M443.362 126.073H392.914C392.007 126.073 391.303 125.565 391.335 124.927C391.367 124.29 392.124 123.782 393.042 123.782H443.789C444.706 123.782 445.346 124.29 445.228 124.927C445.078 125.295 444.816 125.604 444.48 125.81C444.145 126.016 443.753 126.108 443.362 126.073Z" fill="white"/>
<path opacity="0.5" d="M378.664 126.073H332.802C331.895 126.073 331.106 125.565 331.031 124.927C330.957 124.29 331.639 123.782 332.557 123.782H378.685C379.592 123.782 380.328 124.29 380.317 124.927C380.306 125.565 379.571 126.073 378.664 126.073Z" fill="white"/>
<path opacity="0.5" d="M417.7 184.546C418.468 184.546 419.044 184.913 418.98 185.367C418.916 185.821 418.244 186.178 417.476 186.178H412.496C411.738 186.178 411.162 185.811 411.216 185.367C411.269 184.924 411.93 184.546 412.698 184.546H417.7Z" fill="white"/>
<path opacity="0.5" d="M356.576 180.189C356.576 180.654 355.989 181.032 355.211 181.032H348.427C347.649 181.032 346.987 180.654 346.955 180.189C346.923 179.724 347.521 179.346 348.299 179.346H355.115C355.904 179.346 356.554 179.724 356.576 180.189Z" fill="white"/>
<path opacity="0.5" d="M438.434 157.736C438.338 158.266 437.591 158.698 436.76 158.698H428.824C427.992 158.698 427.395 158.266 427.47 157.736C427.544 157.207 428.302 156.774 429.134 156.774H437.112C437.943 156.774 438.541 157.207 438.434 157.736Z" fill="white"/>
<path opacity="0.5" d="M463.189 162.698C464.011 162.698 464.565 163.12 464.427 163.628C464.262 163.937 464.012 164.19 463.706 164.355C463.401 164.521 463.054 164.591 462.709 164.558H456.385C455.563 164.558 455.009 164.147 455.126 163.628C455.287 163.319 455.536 163.065 455.84 162.9C456.144 162.734 456.489 162.664 456.833 162.698H463.189Z" fill="white"/>
<path opacity="0.5" d="M359.743 146.342C358.89 146.342 358.175 145.877 358.143 145.261C358.111 144.645 358.805 144.18 359.669 144.18H366.399C367.263 144.18 367.966 144.645 367.977 145.261C367.988 145.877 367.295 146.342 366.441 146.342H359.743Z" fill="white"/>
<path d="M268.126 113.058C268.275 113.42 268.332 113.814 268.289 114.203C268.246 114.593 268.106 114.965 267.882 115.285C267.657 115.604 267.356 115.86 267.007 116.028C266.658 116.197 266.272 116.272 265.886 116.247C264.954 116.192 264.059 115.86 263.312 115.293C262.564 114.726 261.998 113.949 261.684 113.058C261.526 112.696 261.463 112.298 261.5 111.904C261.537 111.51 261.674 111.132 261.896 110.807C262.119 110.481 262.42 110.219 262.772 110.045C263.123 109.872 263.512 109.792 263.902 109.815C264.846 109.864 265.753 110.2 266.506 110.778C267.259 111.356 267.823 112.151 268.126 113.058Z" fill="white"/>
<path d="M276.765 113.112C276.899 113.482 276.94 113.88 276.884 114.271C276.827 114.661 276.676 115.03 276.443 115.346C276.209 115.662 275.902 115.914 275.549 116.078C275.195 116.243 274.807 116.316 274.419 116.29C273.499 116.244 272.614 115.915 271.883 115.347C271.151 114.78 270.607 114 270.323 113.112C270.182 112.74 270.135 112.338 270.186 111.943C270.237 111.548 270.385 111.172 270.616 110.85C270.847 110.528 271.154 110.269 271.509 110.098C271.864 109.926 272.256 109.848 272.648 109.869C273.581 109.913 274.477 110.248 275.214 110.828C275.951 111.409 276.493 112.207 276.765 113.112Z" fill="white"/>
<path d="M285.542 113.058C285.662 113.44 285.687 113.846 285.616 114.241C285.545 114.635 285.38 115.006 285.135 115.321C284.889 115.635 284.572 115.884 284.21 116.046C283.848 116.207 283.452 116.276 283.057 116.247C282.146 116.205 281.27 115.875 280.553 115.303C279.836 114.731 279.313 113.946 279.058 113.058C278.932 112.677 278.9 112.271 278.965 111.875C279.029 111.479 279.188 111.105 279.428 110.785C279.668 110.465 279.981 110.21 280.34 110.041C280.699 109.872 281.094 109.794 281.49 109.815C282.419 109.843 283.315 110.173 284.045 110.757C284.775 111.341 285.3 112.148 285.542 113.058Z" fill="white"/>
<path d="M278.034 244.64H255.54C254.126 244.64 252.769 245.209 251.769 246.223C250.769 247.236 250.207 248.611 250.207 250.045V261.147C250.207 262.58 250.769 263.955 251.769 264.969C252.769 265.982 254.126 266.552 255.54 266.552H261.417L265.875 276.789L272.157 266.552H278.034C279.448 266.552 280.805 265.982 281.805 264.969C282.805 263.955 283.367 262.58 283.367 261.147V250.001C283.355 248.575 282.789 247.212 281.79 246.207C280.791 245.203 279.441 244.639 278.034 244.64Z" fill="white" stroke="#263238" stroke-linecap="round" stroke-linejoin="round"/>
<path d="M263.657 251.017C263.657 250.731 263.769 250.456 263.969 250.253C264.169 250.05 264.441 249.936 264.723 249.936C264.994 249.936 265.254 250.039 265.452 250.226C265.65 250.412 265.771 250.668 265.79 250.942C265.79 251.228 265.678 251.503 265.478 251.706C265.278 251.909 265.006 252.023 264.723 252.023C264.453 252.023 264.193 251.92 263.995 251.733C263.797 251.547 263.676 251.291 263.657 251.017ZM263.892 253.277H265.609V260.692H263.86L263.892 253.277Z" fill="#263238"/>
<path d="M269.736 252.866V253.309H271.752V254.704H269.8V260.671H268.126V254.704H266.878V253.309H268.126V252.834C268.098 252.483 268.148 252.13 268.271 251.8C268.394 251.471 268.587 251.173 268.837 250.929C269.086 250.684 269.386 250.498 269.715 250.384C270.044 250.271 270.393 250.232 270.739 250.272C271.286 250.244 271.828 250.383 272.296 250.672L271.816 251.98C271.536 251.785 271.206 251.679 270.867 251.677C270.109 251.677 269.736 252.098 269.736 252.866Z" fill="#263238"/>
<path d="M346.529 246.196H324.024C322.61 246.196 321.253 246.766 320.253 247.779C319.253 248.793 318.691 250.168 318.691 251.601V262.693C318.691 264.126 319.253 265.501 320.253 266.515C321.253 267.528 322.61 268.098 324.024 268.098H329.912L334.359 278.335L340.641 268.098H346.529C347.943 268.098 349.299 267.528 350.3 266.515C351.3 265.501 351.861 264.126 351.861 262.693V251.558C351.85 250.132 351.283 248.768 350.285 247.764C349.286 246.76 347.936 246.196 346.529 246.196Z" fill="white" stroke="#263238" stroke-linecap="round" stroke-linejoin="round"/>
<path d="M328.76 259.071H323.011C323.124 259.612 323.428 260.092 323.866 260.421C324.305 260.749 324.847 260.904 325.39 260.855C325.758 260.869 326.125 260.803 326.467 260.664C326.809 260.524 327.118 260.313 327.373 260.044L328.291 261.125C327.737 261.683 327.037 262.07 326.274 262.239C325.511 262.408 324.716 262.354 323.983 262.081C323.25 261.809 322.608 261.33 322.134 260.701C321.659 260.072 321.372 259.319 321.305 258.531C321.29 258.026 321.377 257.523 321.562 257.053C321.747 256.584 322.025 256.158 322.379 255.802C322.733 255.446 323.156 255.168 323.621 254.985C324.085 254.801 324.582 254.717 325.08 254.736C325.579 254.716 326.077 254.801 326.541 254.988C327.005 255.175 327.425 255.458 327.774 255.82C328.123 256.182 328.393 256.614 328.566 257.088C328.74 257.563 328.813 258.069 328.781 258.574C328.781 258.693 328.771 258.909 328.76 259.071ZM323.001 257.925H327.149C327.098 257.412 326.855 256.938 326.471 256.601C326.086 256.263 325.589 256.087 325.08 256.109C324.571 256.09 324.074 256.266 323.688 256.603C323.303 256.94 323.057 257.412 323.001 257.925Z" fill="#263238"/>
<path d="M330.424 251.926H332.12V262.228H330.403L330.424 251.926Z" fill="#263238"/>
<path d="M333.549 261.493L334.199 260.174C334.967 260.65 335.848 260.904 336.748 260.909C337.815 260.909 338.284 260.606 338.284 260.087C338.284 258.671 333.762 260.001 333.762 257.05C333.762 255.644 335.01 254.725 336.962 254.725C337.913 254.71 338.853 254.929 339.703 255.363L339.041 256.682C338.395 256.301 337.656 256.11 336.908 256.131C335.842 256.131 335.372 256.477 335.372 256.963C335.372 258.466 339.895 257.125 339.895 260.033C339.895 261.417 338.636 262.325 336.578 262.325C335.512 262.332 334.465 262.044 333.549 261.493Z" fill="#263238"/>
<path d="M348.289 259.071H342.54C342.653 259.612 342.957 260.092 343.395 260.421C343.833 260.749 344.375 260.904 344.918 260.855C345.287 260.869 345.654 260.803 345.995 260.664C346.337 260.524 346.646 260.313 346.902 260.044L347.819 261.125C347.265 261.683 346.566 262.07 345.803 262.239C345.04 262.408 344.245 262.354 343.512 262.081C342.778 261.809 342.137 261.33 341.662 260.701C341.188 260.072 340.9 259.319 340.833 258.531C340.818 258.026 340.906 257.523 341.091 257.053C341.276 256.584 341.554 256.158 341.908 255.802C342.262 255.446 342.685 255.168 343.149 254.985C343.614 254.801 344.111 254.717 344.609 254.736C345.108 254.716 345.605 254.801 346.069 254.988C346.533 255.175 346.953 255.458 347.302 255.82C347.651 256.182 347.921 256.614 348.095 257.088C348.268 257.563 348.342 258.069 348.31 258.574C348.31 258.693 348.299 258.909 348.289 259.071ZM342.529 257.925H346.678C346.627 257.412 346.384 256.938 345.999 256.601C345.615 256.263 345.117 256.087 344.609 256.109C344.1 256.09 343.603 256.266 343.217 256.603C342.831 256.94 342.585 257.412 342.529 257.925Z" fill="#263238"/>
<path d="M412.933 245.537H390.429C389.014 245.537 387.658 246.106 386.658 247.12C385.658 248.133 385.096 249.508 385.096 250.942V262.044C385.096 263.477 385.658 264.852 386.658 265.866C387.658 266.879 389.014 267.449 390.429 267.449H396.316L400.763 277.686L407.046 267.449H412.933C414.347 267.449 415.704 266.879 416.704 265.866C417.704 264.852 418.266 263.477 418.266 262.044V250.898C418.254 249.472 417.688 248.109 416.689 247.104C415.69 246.1 414.34 245.537 412.933 245.537Z" fill="white" stroke="#263238" stroke-linecap="round" stroke-linejoin="round"/>
<path d="M395.59 253.763V254.26H397.606V255.655H395.644V261.622H393.98V255.655H392.775V254.26H393.98V253.785C393.953 253.434 394.002 253.081 394.125 252.752C394.248 252.422 394.441 252.125 394.691 251.88C394.941 251.635 395.241 251.449 395.569 251.336C395.898 251.222 396.248 251.184 396.593 251.223C397.136 251.196 397.675 251.335 398.14 251.623L397.66 252.931C397.386 252.731 397.058 252.622 396.721 252.617C395.964 252.563 395.59 252.974 395.59 253.763Z" fill="#263238"/>
<path d="M398.044 257.861C398.014 257.072 398.217 256.292 398.628 255.622C399.039 254.951 399.639 254.42 400.349 254.098C401.06 253.776 401.85 253.676 402.617 253.812C403.384 253.948 404.094 254.313 404.654 254.861C405.215 255.409 405.601 256.115 405.763 256.887C405.924 257.659 405.855 258.462 405.563 259.194C405.27 259.925 404.769 260.552 404.123 260.992C403.477 261.433 402.715 261.667 401.936 261.666C401.429 261.696 400.921 261.619 400.445 261.44C399.968 261.261 399.534 260.985 399.168 260.627C398.802 260.27 398.514 259.839 398.32 259.363C398.126 258.887 398.032 258.375 398.044 257.861ZM404.112 257.861C404.083 257.441 403.934 257.038 403.682 256.703C403.431 256.368 403.089 256.115 402.697 255.974C402.306 255.833 401.882 255.812 401.479 255.911C401.075 256.011 400.709 256.228 400.426 256.536C400.142 256.843 399.953 257.228 399.883 257.643C399.812 258.057 399.862 258.484 400.027 258.87C400.192 259.257 400.464 259.586 400.811 259.817C401.158 260.049 401.564 260.173 401.979 260.174C402.272 260.175 402.562 260.114 402.831 259.996C403.101 259.878 403.343 259.705 403.543 259.488C403.743 259.271 403.897 259.015 403.995 258.734C404.093 258.454 404.133 258.157 404.112 257.861Z" fill="#263238"/>
<path d="M411.706 254.066V255.72C411.575 255.71 411.443 255.71 411.311 255.72C411.014 255.696 410.715 255.74 410.437 255.849C410.159 255.957 409.908 256.128 409.703 256.348C409.498 256.568 409.345 256.831 409.254 257.119C409.163 257.407 409.137 257.712 409.178 258.012V261.611H407.461V254.152H409.093V255.233C409.391 254.826 409.789 254.504 410.247 254.3C410.705 254.095 411.208 254.014 411.706 254.066Z" fill="#263238"/>
<path d="M478.377 244.64H455.84C454.426 244.64 453.07 245.209 452.07 246.223C451.069 247.236 450.508 248.611 450.508 250.045V261.147C450.508 262.58 451.069 263.955 452.07 264.969C453.07 265.982 454.426 266.552 455.84 266.552H461.728L466.175 276.789L472.457 266.552H478.345C479.759 266.552 481.116 265.982 482.116 264.969C483.116 263.955 483.678 262.58 483.678 261.147V250.001C483.666 248.581 483.104 247.222 482.112 246.219C481.12 245.215 479.778 244.648 478.377 244.64Z" fill="white" stroke="#263238" stroke-linecap="round" stroke-linejoin="round"/>
<path d="M464.202 252.888H470.516V254.261H464.202V252.888ZM464.202 256.25H470.516V257.644H464.202V256.25Z" fill="#263238"/>
<path d="M312.335 231.808H289.83C288.416 231.808 287.059 232.377 286.059 233.391C285.059 234.405 284.497 235.779 284.497 237.213V248.304C284.497 249.738 285.059 251.113 286.059 252.126C287.059 253.14 288.416 253.709 289.83 253.709H295.718L300.165 263.947L306.447 253.709H312.335C313.749 253.709 315.105 253.14 316.105 252.126C317.105 251.113 317.667 249.738 317.667 248.304V237.17C317.656 235.744 317.089 234.38 316.09 233.376C315.092 232.371 313.742 231.808 312.335 231.808Z" fill="white" stroke="#263238" stroke-linecap="round" stroke-linejoin="round"/>
<path d="M295.792 236.413H299.056V237.807H297.499V248.023H299.056V249.417H295.792V236.413Z" fill="#263238"/>
<path d="M303.322 249.417V248.023H304.869V237.807H303.322V236.413H306.522V249.385L303.322 249.417Z" fill="#263238"/>
<path d="M379.229 230.673H356.725C355.311 230.673 353.954 231.242 352.954 232.256C351.954 233.27 351.392 234.644 351.392 236.078V247.126C351.392 248.559 351.954 249.934 352.954 250.948C353.954 251.961 355.311 252.531 356.725 252.531H362.612L367.071 262.768L373.353 252.531H379.229C380.644 252.531 382 251.961 383 250.948C384 249.934 384.562 248.559 384.562 247.126V236.035C384.551 234.609 383.984 233.245 382.985 232.241C381.986 231.236 380.636 230.673 379.229 230.673Z" fill="white" stroke="#263238" stroke-linecap="round" stroke-linejoin="round"/>
<path d="M363.402 241.732C363.945 241.915 364.212 242.294 364.212 243.148V245.796C364.188 245.939 364.197 246.085 364.238 246.224C364.28 246.363 364.353 246.489 364.451 246.594C364.549 246.699 364.671 246.78 364.805 246.829C364.94 246.878 365.083 246.894 365.225 246.877H365.513V248.272H364.82C364.512 248.318 364.197 248.293 363.899 248.196C363.602 248.1 363.331 247.936 363.106 247.717C362.882 247.497 362.71 247.229 362.604 246.931C362.498 246.634 362.461 246.316 362.495 246.002V243.148C362.495 242.683 362.26 242.477 361.876 242.477H361.428V241.061H361.876C362.26 241.061 362.495 240.856 362.495 240.391V237.526C362.46 237.213 362.497 236.895 362.603 236.598C362.709 236.301 362.881 236.033 363.106 235.814C363.331 235.595 363.603 235.432 363.9 235.337C364.197 235.243 364.512 235.219 364.82 235.267H365.513V236.662H365.183C365.04 236.642 364.895 236.657 364.76 236.705C364.624 236.753 364.502 236.834 364.403 236.939C364.304 237.045 364.231 237.173 364.191 237.312C364.15 237.452 364.143 237.6 364.169 237.743V240.38C364.212 241.18 363.945 241.559 363.402 241.732Z" fill="#263238"/>
<path d="M373.854 241.029V242.445H373.385C373.011 242.445 372.777 242.65 372.777 243.115V245.969C372.809 246.284 372.77 246.602 372.663 246.899C372.556 247.196 372.383 247.465 372.157 247.684C371.932 247.903 371.66 248.067 371.363 248.163C371.065 248.259 370.75 248.285 370.441 248.239H369.748V246.845H370.036C370.181 246.869 370.33 246.858 370.47 246.812C370.611 246.766 370.738 246.687 370.843 246.582C370.947 246.476 371.025 246.347 371.07 246.204C371.115 246.062 371.126 245.911 371.102 245.764V243.115C371.102 242.261 371.347 241.883 371.891 241.699C371.347 241.526 371.102 241.148 371.102 240.283V237.645C371.129 237.497 371.119 237.345 371.075 237.202C371.031 237.058 370.953 236.928 370.848 236.821C370.743 236.715 370.615 236.636 370.473 236.591C370.332 236.547 370.181 236.537 370.036 236.564H369.748V235.235H370.441C370.749 235.186 371.064 235.211 371.362 235.306C371.66 235.4 371.932 235.563 372.157 235.782C372.383 236 372.556 236.268 372.664 236.565C372.771 236.862 372.81 237.179 372.777 237.494V240.359C372.777 240.823 373.011 241.029 373.385 241.029H373.854Z" fill="#263238"/>
<path d="M445.42 228.424H422.916C421.501 228.424 420.145 228.994 419.145 230.007C418.145 231.021 417.583 232.396 417.583 233.829V244.921C417.583 246.354 418.145 247.729 419.145 248.743C420.145 249.756 421.501 250.326 422.916 250.326H428.793L433.251 260.563L439.533 250.326H445.42C446.835 250.326 448.191 249.756 449.191 248.743C450.191 247.729 450.753 246.354 450.753 244.921V233.786C450.742 232.36 450.175 230.996 449.176 229.992C448.177 228.988 446.827 228.424 445.42 228.424Z" fill="white" stroke="#263238" stroke-linecap="round" stroke-linejoin="round"/>
<path d="M433.272 236.629C433.257 236.47 433.275 236.31 433.324 236.158C433.374 236.006 433.454 235.867 433.56 235.748C433.666 235.63 433.795 235.535 433.94 235.47C434.084 235.406 434.24 235.372 434.397 235.372C434.555 235.372 434.711 235.406 434.855 235.47C434.999 235.535 435.129 235.63 435.235 235.748C435.341 235.867 435.421 236.006 435.471 236.158C435.52 236.31 435.538 236.47 435.523 236.629C435.538 236.788 435.52 236.949 435.471 237.101C435.421 237.252 435.341 237.392 435.235 237.51C435.129 237.629 434.999 237.723 434.855 237.788C434.711 237.853 434.555 237.886 434.397 237.886C434.24 237.886 434.084 237.853 433.94 237.788C433.795 237.723 433.666 237.629 433.56 237.51C433.454 237.392 433.374 237.252 433.324 237.101C433.275 236.949 433.257 236.788 433.272 236.629ZM435.523 241.926C435.494 242.34 435.385 242.744 435.203 243.115L434.499 245.083H433.432L433.987 242.921C433.789 242.836 433.621 242.692 433.505 242.509C433.389 242.326 433.33 242.111 433.336 241.894C433.336 241.594 433.454 241.307 433.663 241.095C433.872 240.883 434.155 240.764 434.451 240.764C434.746 240.764 435.03 240.883 435.239 241.095C435.448 241.307 435.565 241.594 435.565 241.894L435.523 241.926Z" fill="#263238"/>
<path d="M357.45 422.402H379.944C381.358 422.402 382.714 421.833 383.715 420.819C384.715 419.805 385.277 418.431 385.277 416.997V405.938C385.262 404.514 384.694 403.153 383.696 402.151C382.697 401.149 381.349 400.587 379.944 400.587H374.067L372.35 390.35L363.327 400.587H357.45C356.045 400.587 354.696 401.149 353.698 402.151C352.699 403.153 352.131 404.514 352.117 405.938V417.04C352.128 418.466 352.695 419.83 353.694 420.834C354.693 421.839 356.043 422.402 357.45 422.402Z" fill="white" stroke="#263238" stroke-linecap="round" stroke-linejoin="round"/>
<path d="M365.353 409.214L360.629 411.008L365.353 412.803V414.251L359.039 411.765V410.252L365.353 407.765V409.214Z" fill="#263238"/>
<path d="M370.345 404.165H371.871L367.316 417.256H365.823L370.345 404.165Z" fill="#263238"/>
<path d="M378.515 410.252V411.754L372.201 414.241V412.792L376.915 411.008L372.19 409.225V407.765L378.515 410.252Z" fill="#263238"/>
<path d="M214.403 341.596H236.897C238.311 341.596 239.667 341.027 240.667 340.013C241.668 338.999 242.229 337.624 242.229 336.191V325.143C242.229 323.709 241.668 322.335 240.667 321.321C239.667 320.307 238.311 319.738 236.897 319.738H231.02L232.3 309.501L220.28 319.738H214.403C212.989 319.738 211.632 320.307 210.632 321.321C209.632 322.335 209.07 323.709 209.07 325.143V336.234C209.081 337.66 209.648 339.024 210.647 340.028C211.646 341.033 212.996 341.596 214.403 341.596Z" fill="white" stroke="#263238" stroke-linecap="round" stroke-linejoin="round"/>
<path d="M221.069 334.559C221.069 334.272 221.182 333.997 221.382 333.794C221.582 333.592 221.853 333.478 222.136 333.478C222.419 333.478 222.69 333.592 222.89 333.794C223.09 333.997 223.202 334.272 223.202 334.559C223.202 334.845 223.09 335.12 222.89 335.323C222.69 335.526 222.419 335.64 222.136 335.64C221.853 335.64 221.582 335.526 221.382 335.323C221.182 335.12 221.069 334.845 221.069 334.559ZM221.197 325.824H223.224L222.882 332.31H221.496L221.197 325.824Z" fill="#263238"/>
<path d="M224.962 328.31H231.276V329.705H224.962V328.31ZM224.962 331.672H231.276V333.067H224.962V331.672Z" fill="#263238"/>
<defs>
<filter id="filter0_bd_1_691" x="0" y="0" width="747" height="708" filterUnits="userSpaceOnUse" color-interpolation-filters="sRGB">
<feFlood flood-opacity="0" result="BackgroundImageFix"/>
<feGaussianBlur in="BackgroundImageFix" stdDeviation="30"/>
<feComposite in2="SourceAlpha" operator="in" result="effect1_backgroundBlur_1_691"/>
<feColorMatrix in="SourceAlpha" type="matrix" values="0 0 0 0 0 0 0 0 0 0 0 0 0 0 0 0 0 0 127 0" result="hardAlpha"/>
<feOffset dy="30"/>
<feGaussianBlur stdDeviation="50"/>
<feColorMatrix type="matrix" values="0 0 0 0 0 0 0 0 0 0.507158 0 0 0 0 0.666667 0 0 0 0.06 0"/>
<feBlend mode="normal" in2="effect1_backgroundBlur_1_691" result="effect2_dropShadow_1_691"/>
<feBlend mode="normal" in="SourceGraphic" in2="effect2_dropShadow_1_691" result="shape"/>
</filter>
<filter id="filter1_bd_1_691" x="101" y="75" width="565.894" height="570.776" filterUnits="userSpaceOnUse" color-interpolation-filters="sRGB">
<feFlood flood-opacity="0" result="BackgroundImageFix"/>
<feGaussianBlur in="BackgroundImageFix" stdDeviation="30"/>
<feComposite in2="SourceAlpha" operator="in" result="effect1_backgroundBlur_1_691"/>
<feColorMatrix in="SourceAlpha" type="matrix" values="0 0 0 0 0 0 0 0 0 0 0 0 0 0 0 0 0 0 127 0" result="hardAlpha"/>
<feOffset dy="30"/>
<feGaussianBlur stdDeviation="50"/>
<feColorMatrix type="matrix" values="0 0 0 0 0 0 0 0 0 0.507158 0 0 0 0 0.666667 0 0 0 0.06 0"/>
<feBlend mode="normal" in2="effect1_backgroundBlur_1_691" result="effect2_dropShadow_1_691"/>
<feBlend mode="normal" in="SourceGraphic" in2="effect2_dropShadow_1_691" result="shape"/>
</filter>
<linearGradient id="paint0_linear_1_691" x1="681.533" y1="-850.75" x2="-56.4116" y2="-716.013" gradientUnits="userSpaceOnUse">
<stop stop-color="white"/>
<stop offset="1" stop-color="white" stop-opacity="0"/>
</linearGradient>
<linearGradient id="paint1_linear_1_691" x1="505.07" y1="-66.3383" x2="767.702" y2="239.606" gradientUnits="userSpaceOnUse">
<stop stop-color="white"/>
<stop offset="1" stop-color="white" stop-opacity="0"/>
</linearGradient>
<linearGradient id="paint2_linear_1_691" x1="589.993" y1="-527.032" x2="93.8123" y2="-444.004" gradientUnits="userSpaceOnUse">
<stop stop-color="white"/>
<stop offset="1" stop-color="white" stop-opacity="0"/>
</linearGradient>
<linearGradient id="paint3_linear_1_691" x1="471.955" y1="45.4902" x2="665.467" y2="252.086" gradientUnits="userSpaceOnUse">
<stop stop-color="white"/>
<stop offset="1" stop-color="white" stop-opacity="0"/>
</linearGradient>
</defs>
</svg>
